<mxfile host="Electron" agent="Mozilla/5.0 (Windows NT 10.0; Win64; x64) AppleWebKit/537.36 (KHTML, like Gecko) draw.io/28.0.4 Chrome/138.0.7204.97 Electron/37.2.1 Safari/537.36" version="28.0.4" pages="4">
  <diagram name="Atributos" id="Tz8FG8_DQYstHFeKWT5f">
    <mxGraphModel dx="1426" dy="849" grid="1" gridSize="10" guides="1" tooltips="1" connect="1" arrows="1" fold="1" page="1" pageScale="1" pageWidth="5000" pageHeight="5000" math="0" shadow="0">
      <root>
        <mxCell id="0" />
        <mxCell id="1" parent="0" />
        <mxCell id="r4S9ZSSb6FGwXRTaT4US-15" value="Propietario" style="whiteSpace=wrap;html=1;align=center;" parent="1" vertex="1">
          <mxGeometry x="615" y="80" width="100" height="40" as="geometry" />
        </mxCell>
        <mxCell id="r4S9ZSSb6FGwXRTaT4US-49" style="edgeStyle=orthogonalEdgeStyle;rounded=0;orthogonalLoop=1;jettySize=auto;html=1;exitX=0.5;exitY=0;exitDx=0;exitDy=0;entryX=0.5;entryY=1;entryDx=0;entryDy=0;" parent="1" source="r4S9ZSSb6FGwXRTaT4US-17" target="r4S9ZSSb6FGwXRTaT4US-15" edge="1">
          <mxGeometry relative="1" as="geometry" />
        </mxCell>
        <mxCell id="r4S9ZSSb6FGwXRTaT4US-17" value="nombre_completo" style="ellipse;whiteSpace=wrap;html=1;align=center;" parent="1" vertex="1">
          <mxGeometry x="615" y="180" width="120" height="40" as="geometry" />
        </mxCell>
        <mxCell id="r4S9ZSSb6FGwXRTaT4US-50" style="edgeStyle=orthogonalEdgeStyle;rounded=0;orthogonalLoop=1;jettySize=auto;html=1;exitX=0.5;exitY=0;exitDx=0;exitDy=0;entryX=1;entryY=0.5;entryDx=0;entryDy=0;" parent="1" source="r4S9ZSSb6FGwXRTaT4US-18" target="r4S9ZSSb6FGwXRTaT4US-15" edge="1">
          <mxGeometry relative="1" as="geometry" />
        </mxCell>
        <mxCell id="r4S9ZSSb6FGwXRTaT4US-18" value="contacto" style="ellipse;shape=doubleEllipse;margin=3;whiteSpace=wrap;html=1;align=center;" parent="1" vertex="1">
          <mxGeometry x="840" y="160" width="100" height="40" as="geometry" />
        </mxCell>
        <mxCell id="r4S9ZSSb6FGwXRTaT4US-48" style="edgeStyle=orthogonalEdgeStyle;rounded=0;orthogonalLoop=1;jettySize=auto;html=1;exitX=0.5;exitY=0;exitDx=0;exitDy=0;entryX=0;entryY=0.5;entryDx=0;entryDy=0;" parent="1" source="r4S9ZSSb6FGwXRTaT4US-19" target="r4S9ZSSb6FGwXRTaT4US-15" edge="1">
          <mxGeometry relative="1" as="geometry" />
        </mxCell>
        <mxCell id="r4S9ZSSb6FGwXRTaT4US-19" value="documento" style="ellipse;whiteSpace=wrap;html=1;align=center;fontStyle=4;" parent="1" vertex="1">
          <mxGeometry x="430" y="180" width="100" height="40" as="geometry" />
        </mxCell>
        <mxCell id="r4S9ZSSb6FGwXRTaT4US-24" value="Espacio_parqueo" style="whiteSpace=wrap;html=1;align=center;" parent="1" vertex="1">
          <mxGeometry x="700" y="260" width="100" height="40" as="geometry" />
        </mxCell>
        <mxCell id="r4S9ZSSb6FGwXRTaT4US-34" style="edgeStyle=orthogonalEdgeStyle;rounded=0;orthogonalLoop=1;jettySize=auto;html=1;exitX=0.5;exitY=0;exitDx=0;exitDy=0;entryX=1;entryY=0.5;entryDx=0;entryDy=0;" parent="1" source="r4S9ZSSb6FGwXRTaT4US-27" target="r4S9ZSSb6FGwXRTaT4US-24" edge="1">
          <mxGeometry relative="1" as="geometry" />
        </mxCell>
        <mxCell id="r4S9ZSSb6FGwXRTaT4US-27" value="documento_propietario" style="ellipse;whiteSpace=wrap;html=1;align=center;" parent="1" vertex="1">
          <mxGeometry x="740" y="345" width="150" height="50" as="geometry" />
        </mxCell>
        <mxCell id="r4S9ZSSb6FGwXRTaT4US-28" value="numero_espacio" style="ellipse;whiteSpace=wrap;html=1;align=center;fontStyle=4;" parent="1" vertex="1">
          <mxGeometry x="570" y="350" width="120" height="40" as="geometry" />
        </mxCell>
        <mxCell id="r4S9ZSSb6FGwXRTaT4US-29" value="piso" style="ellipse;whiteSpace=wrap;html=1;align=center;" parent="1" vertex="1">
          <mxGeometry x="930" y="355" width="120" height="30" as="geometry" />
        </mxCell>
        <mxCell id="r4S9ZSSb6FGwXRTaT4US-32" style="edgeStyle=orthogonalEdgeStyle;rounded=0;orthogonalLoop=1;jettySize=auto;html=1;exitX=0.5;exitY=0;exitDx=0;exitDy=0;entryX=0;entryY=0.5;entryDx=0;entryDy=0;" parent="1" source="r4S9ZSSb6FGwXRTaT4US-30" target="r4S9ZSSb6FGwXRTaT4US-24" edge="1">
          <mxGeometry relative="1" as="geometry" />
        </mxCell>
        <mxCell id="r4S9ZSSb6FGwXRTaT4US-30" value="tipo" style="ellipse;whiteSpace=wrap;html=1;align=center;" parent="1" vertex="1">
          <mxGeometry x="410" y="355" width="100" height="40" as="geometry" />
        </mxCell>
        <mxCell id="r4S9ZSSb6FGwXRTaT4US-31" value="Arrendamiento" style="whiteSpace=wrap;html=1;align=center;" parent="1" vertex="1">
          <mxGeometry x="270" y="490" width="100" height="40" as="geometry" />
        </mxCell>
        <mxCell id="r4S9ZSSb6FGwXRTaT4US-33" style="edgeStyle=orthogonalEdgeStyle;rounded=0;orthogonalLoop=1;jettySize=auto;html=1;exitX=0.5;exitY=0;exitDx=0;exitDy=0;entryX=0.44;entryY=1.075;entryDx=0;entryDy=0;entryPerimeter=0;" parent="1" source="r4S9ZSSb6FGwXRTaT4US-28" target="r4S9ZSSb6FGwXRTaT4US-24" edge="1">
          <mxGeometry relative="1" as="geometry" />
        </mxCell>
        <mxCell id="r4S9ZSSb6FGwXRTaT4US-35" style="edgeStyle=orthogonalEdgeStyle;rounded=0;orthogonalLoop=1;jettySize=auto;html=1;exitX=0.5;exitY=0;exitDx=0;exitDy=0;entryX=0.59;entryY=0;entryDx=0;entryDy=0;entryPerimeter=0;" parent="1" source="r4S9ZSSb6FGwXRTaT4US-29" target="r4S9ZSSb6FGwXRTaT4US-24" edge="1">
          <mxGeometry relative="1" as="geometry" />
        </mxCell>
        <mxCell id="r4S9ZSSb6FGwXRTaT4US-38" style="edgeStyle=orthogonalEdgeStyle;rounded=0;orthogonalLoop=1;jettySize=auto;html=1;exitX=0.5;exitY=0;exitDx=0;exitDy=0;entryX=0;entryY=0.5;entryDx=0;entryDy=0;" parent="1" source="r4S9ZSSb6FGwXRTaT4US-36" target="r4S9ZSSb6FGwXRTaT4US-31" edge="1">
          <mxGeometry relative="1" as="geometry" />
        </mxCell>
        <mxCell id="r4S9ZSSb6FGwXRTaT4US-36" value="id_arrendamiento" style="ellipse;whiteSpace=wrap;html=1;align=center;fontStyle=4;" parent="1" vertex="1">
          <mxGeometry x="70" y="600" width="130" height="50" as="geometry" />
        </mxCell>
        <mxCell id="r4S9ZSSb6FGwXRTaT4US-39" style="edgeStyle=orthogonalEdgeStyle;rounded=0;orthogonalLoop=1;jettySize=auto;html=1;exitX=0.5;exitY=0;exitDx=0;exitDy=0;entryX=0.5;entryY=1;entryDx=0;entryDy=0;" parent="1" source="r4S9ZSSb6FGwXRTaT4US-37" target="r4S9ZSSb6FGwXRTaT4US-31" edge="1">
          <mxGeometry relative="1" as="geometry" />
        </mxCell>
        <mxCell id="r4S9ZSSb6FGwXRTaT4US-37" value="numero_espacio" style="ellipse;whiteSpace=wrap;html=1;align=center;" parent="1" vertex="1">
          <mxGeometry x="280" y="610" width="100" height="40" as="geometry" />
        </mxCell>
        <mxCell id="r4S9ZSSb6FGwXRTaT4US-41" style="edgeStyle=orthogonalEdgeStyle;rounded=0;orthogonalLoop=1;jettySize=auto;html=1;exitX=0.5;exitY=0;exitDx=0;exitDy=0;entryX=1;entryY=0.5;entryDx=0;entryDy=0;" parent="1" source="r4S9ZSSb6FGwXRTaT4US-40" target="r4S9ZSSb6FGwXRTaT4US-31" edge="1">
          <mxGeometry relative="1" as="geometry" />
        </mxCell>
        <mxCell id="r4S9ZSSb6FGwXRTaT4US-40" value="documento_arrendatario" style="ellipse;whiteSpace=wrap;html=1;align=center;" parent="1" vertex="1">
          <mxGeometry x="410" y="600" width="180" height="50" as="geometry" />
        </mxCell>
        <mxCell id="r4S9ZSSb6FGwXRTaT4US-43" value="Arrendatario" style="whiteSpace=wrap;html=1;align=center;" parent="1" vertex="1">
          <mxGeometry x="410" y="690" width="100" height="40" as="geometry" />
        </mxCell>
        <mxCell id="r4S9ZSSb6FGwXRTaT4US-46" style="edgeStyle=orthogonalEdgeStyle;rounded=0;orthogonalLoop=1;jettySize=auto;html=1;exitX=0.5;exitY=0;exitDx=0;exitDy=0;entryX=0;entryY=0.5;entryDx=0;entryDy=0;" parent="1" source="r4S9ZSSb6FGwXRTaT4US-44" target="r4S9ZSSb6FGwXRTaT4US-43" edge="1">
          <mxGeometry relative="1" as="geometry" />
        </mxCell>
        <mxCell id="r4S9ZSSb6FGwXRTaT4US-44" value="documento" style="ellipse;whiteSpace=wrap;html=1;align=center;fontStyle=4;" parent="1" vertex="1">
          <mxGeometry x="260" y="790" width="130" height="50" as="geometry" />
        </mxCell>
        <mxCell id="r4S9ZSSb6FGwXRTaT4US-47" style="edgeStyle=orthogonalEdgeStyle;rounded=0;orthogonalLoop=1;jettySize=auto;html=1;exitX=0.5;exitY=0;exitDx=0;exitDy=0;entryX=0.5;entryY=1;entryDx=0;entryDy=0;" parent="1" source="r4S9ZSSb6FGwXRTaT4US-45" target="r4S9ZSSb6FGwXRTaT4US-43" edge="1">
          <mxGeometry relative="1" as="geometry" />
        </mxCell>
        <mxCell id="r4S9ZSSb6FGwXRTaT4US-45" value="nombre" style="ellipse;whiteSpace=wrap;html=1;align=center;" parent="1" vertex="1">
          <mxGeometry x="430" y="790" width="120" height="50" as="geometry" />
        </mxCell>
        <mxCell id="r4S9ZSSb6FGwXRTaT4US-53" style="edgeStyle=orthogonalEdgeStyle;rounded=0;orthogonalLoop=1;jettySize=auto;html=1;exitX=0.5;exitY=0;exitDx=0;exitDy=0;entryX=1;entryY=0.5;entryDx=0;entryDy=0;" parent="1" source="r4S9ZSSb6FGwXRTaT4US-51" target="r4S9ZSSb6FGwXRTaT4US-31" edge="1">
          <mxGeometry relative="1" as="geometry" />
        </mxCell>
        <mxCell id="r4S9ZSSb6FGwXRTaT4US-51" value="fecha_inicio" style="ellipse;whiteSpace=wrap;html=1;align=center;" parent="1" vertex="1">
          <mxGeometry x="630" y="610" width="100" height="40" as="geometry" />
        </mxCell>
        <mxCell id="r4S9ZSSb6FGwXRTaT4US-54" style="edgeStyle=orthogonalEdgeStyle;rounded=0;orthogonalLoop=1;jettySize=auto;html=1;exitX=0.5;exitY=0;exitDx=0;exitDy=0;entryX=0.5;entryY=0;entryDx=0;entryDy=0;" parent="1" source="r4S9ZSSb6FGwXRTaT4US-52" target="r4S9ZSSb6FGwXRTaT4US-31" edge="1">
          <mxGeometry relative="1" as="geometry" />
        </mxCell>
        <mxCell id="r4S9ZSSb6FGwXRTaT4US-52" value="fecha_fin" style="ellipse;whiteSpace=wrap;html=1;align=center;" parent="1" vertex="1">
          <mxGeometry x="770" y="610" width="100" height="40" as="geometry" />
        </mxCell>
      </root>
    </mxGraphModel>
  </diagram>
  <diagram id="NeH6GvxNQWfJ-ABhgYa_" name="Relaciones">
    <mxGraphModel dx="1410" dy="833" grid="1" gridSize="10" guides="1" tooltips="1" connect="1" arrows="1" fold="1" page="1" pageScale="1" pageWidth="5000" pageHeight="5000" math="0" shadow="0">
      <root>
        <mxCell id="0" />
        <mxCell id="1" parent="0" />
        <mxCell id="9Hp6l8PWjv-xDQ_5FwOE-6" value="" style="edgeStyle=orthogonalEdgeStyle;rounded=0;orthogonalLoop=1;jettySize=auto;html=1;strokeColor=default;endArrow=none;startFill=0;startArrow=ERmandOne;exitX=1;exitY=0.5;exitDx=0;exitDy=0;" edge="1" parent="1" source="j9kJFq7qZ7OV3jJjQnPK-1" target="9Hp6l8PWjv-xDQ_5FwOE-4">
          <mxGeometry relative="1" as="geometry">
            <mxPoint x="280" y="250" as="sourcePoint" />
          </mxGeometry>
        </mxCell>
        <mxCell id="j9kJFq7qZ7OV3jJjQnPK-1" value="Propietario" style="whiteSpace=wrap;html=1;align=center;" vertex="1" parent="1">
          <mxGeometry x="140" y="150" width="100" height="40" as="geometry" />
        </mxCell>
        <mxCell id="9Hp6l8PWjv-xDQ_5FwOE-10" style="edgeStyle=orthogonalEdgeStyle;rounded=0;orthogonalLoop=1;jettySize=auto;html=1;entryX=0;entryY=0.5;entryDx=0;entryDy=0;startArrow=ERmandOne;startFill=0;exitX=1;exitY=0.5;exitDx=0;exitDy=0;endArrow=none;" edge="1" parent="1" source="9Hp6l8PWjv-xDQ_5FwOE-1" target="9Hp6l8PWjv-xDQ_5FwOE-9">
          <mxGeometry relative="1" as="geometry">
            <mxPoint x="670" y="230" as="sourcePoint" />
          </mxGeometry>
        </mxCell>
        <mxCell id="9Hp6l8PWjv-xDQ_5FwOE-1" value="Espacio_parqueo" style="whiteSpace=wrap;html=1;align=center;" vertex="1" parent="1">
          <mxGeometry x="510" y="150" width="100" height="40" as="geometry" />
        </mxCell>
        <mxCell id="9Hp6l8PWjv-xDQ_5FwOE-2" value="Arrendamiento" style="whiteSpace=wrap;html=1;align=center;" vertex="1" parent="1">
          <mxGeometry x="920" y="150" width="100" height="40" as="geometry" />
        </mxCell>
        <mxCell id="9Hp6l8PWjv-xDQ_5FwOE-3" value="Arrendatario" style="whiteSpace=wrap;html=1;align=center;" vertex="1" parent="1">
          <mxGeometry x="920" y="440" width="100" height="40" as="geometry" />
        </mxCell>
        <mxCell id="9Hp6l8PWjv-xDQ_5FwOE-7" style="edgeStyle=orthogonalEdgeStyle;rounded=0;orthogonalLoop=1;jettySize=auto;html=1;exitX=1;exitY=0.5;exitDx=0;exitDy=0;entryX=0;entryY=0.5;entryDx=0;entryDy=0;endArrow=ERoneToMany;endFill=0;" edge="1" parent="1" source="9Hp6l8PWjv-xDQ_5FwOE-4" target="9Hp6l8PWjv-xDQ_5FwOE-1">
          <mxGeometry relative="1" as="geometry" />
        </mxCell>
        <mxCell id="9Hp6l8PWjv-xDQ_5FwOE-4" value="Posee" style="shape=rhombus;perimeter=rhombusPerimeter;whiteSpace=wrap;html=1;align=center;" vertex="1" parent="1">
          <mxGeometry x="320" y="140" width="120" height="60" as="geometry" />
        </mxCell>
        <mxCell id="9Hp6l8PWjv-xDQ_5FwOE-11" style="edgeStyle=orthogonalEdgeStyle;rounded=0;orthogonalLoop=1;jettySize=auto;html=1;exitX=1;exitY=0.5;exitDx=0;exitDy=0;entryX=0;entryY=0.5;entryDx=0;entryDy=0;endArrow=ERzeroToMany;startFill=0;endFill=0;" edge="1" parent="1" source="9Hp6l8PWjv-xDQ_5FwOE-9" target="9Hp6l8PWjv-xDQ_5FwOE-2">
          <mxGeometry relative="1" as="geometry" />
        </mxCell>
        <mxCell id="9Hp6l8PWjv-xDQ_5FwOE-9" value="Se arrienda" style="shape=rhombus;perimeter=rhombusPerimeter;whiteSpace=wrap;html=1;align=center;" vertex="1" parent="1">
          <mxGeometry x="720" y="140" width="120" height="60" as="geometry" />
        </mxCell>
        <mxCell id="9Hp6l8PWjv-xDQ_5FwOE-12" value="Se da para" style="shape=rhombus;perimeter=rhombusPerimeter;whiteSpace=wrap;html=1;align=center;" vertex="1" parent="1">
          <mxGeometry x="910" y="290" width="120" height="60" as="geometry" />
        </mxCell>
        <mxCell id="9Hp6l8PWjv-xDQ_5FwOE-14" value="" style="endArrow=none;html=1;rounded=0;entryX=0.5;entryY=1;entryDx=0;entryDy=0;exitX=0.5;exitY=0;exitDx=0;exitDy=0;startArrow=ERmandOne;startFill=0;" edge="1" parent="1" source="9Hp6l8PWjv-xDQ_5FwOE-3" target="9Hp6l8PWjv-xDQ_5FwOE-12">
          <mxGeometry relative="1" as="geometry">
            <mxPoint x="560" y="330" as="sourcePoint" />
            <mxPoint x="720" y="330" as="targetPoint" />
          </mxGeometry>
        </mxCell>
        <mxCell id="9Hp6l8PWjv-xDQ_5FwOE-15" value="" style="endArrow=ERzeroToMany;html=1;rounded=0;entryX=0.44;entryY=1.025;entryDx=0;entryDy=0;exitX=0.5;exitY=0;exitDx=0;exitDy=0;entryPerimeter=0;endFill=0;" edge="1" parent="1" source="9Hp6l8PWjv-xDQ_5FwOE-12" target="9Hp6l8PWjv-xDQ_5FwOE-2">
          <mxGeometry relative="1" as="geometry">
            <mxPoint x="1060" y="400" as="sourcePoint" />
            <mxPoint x="1060" y="300" as="targetPoint" />
          </mxGeometry>
        </mxCell>
      </root>
    </mxGraphModel>
  </diagram>
  <diagram id="NnNBw-_oNIg2NybNGmJ6" name="Otro Ejemplo">
    <mxGraphModel dx="1426" dy="849" grid="1" gridSize="10" guides="1" tooltips="1" connect="1" arrows="1" fold="1" page="1" pageScale="1" pageWidth="5000" pageHeight="5000" math="0" shadow="0">
      <root>
        <mxCell id="0" />
        <mxCell id="1" parent="0" />
        <mxCell id="xg6VdQRzyTKh4cdd0snq-1" value="Libro" style="whiteSpace=wrap;html=1;align=center;" parent="1" vertex="1">
          <mxGeometry x="340" y="560" width="100" height="40" as="geometry" />
        </mxCell>
        <mxCell id="xg6VdQRzyTKh4cdd0snq-2" value="Usuario" style="whiteSpace=wrap;html=1;align=center;" parent="1" vertex="1">
          <mxGeometry x="730" y="300" width="100" height="40" as="geometry" />
        </mxCell>
        <mxCell id="xg6VdQRzyTKh4cdd0snq-5" value="" style="edgeStyle=orthogonalEdgeStyle;rounded=0;orthogonalLoop=1;jettySize=auto;html=1;endArrow=none;startFill=0;startArrow=ERzeroToMany;" parent="1" source="xg6VdQRzyTKh4cdd0snq-3" target="xg6VdQRzyTKh4cdd0snq-4" edge="1">
          <mxGeometry relative="1" as="geometry" />
        </mxCell>
        <mxCell id="xg6VdQRzyTKh4cdd0snq-3" value="Prestamo" style="whiteSpace=wrap;html=1;align=center;" parent="1" vertex="1">
          <mxGeometry x="340" y="300" width="100" height="40" as="geometry" />
        </mxCell>
        <mxCell id="xg6VdQRzyTKh4cdd0snq-6" value="" style="edgeStyle=orthogonalEdgeStyle;rounded=0;orthogonalLoop=1;jettySize=auto;html=1;endArrow=ERmandOne;startFill=0;endFill=0;" parent="1" source="xg6VdQRzyTKh4cdd0snq-4" target="xg6VdQRzyTKh4cdd0snq-2" edge="1">
          <mxGeometry relative="1" as="geometry" />
        </mxCell>
        <mxCell id="xg6VdQRzyTKh4cdd0snq-4" value="es hecho por" style="shape=rhombus;perimeter=rhombusPerimeter;whiteSpace=wrap;html=1;align=center;" parent="1" vertex="1">
          <mxGeometry x="520" y="290" width="120" height="60" as="geometry" />
        </mxCell>
        <mxCell id="xg6VdQRzyTKh4cdd0snq-10" style="edgeStyle=orthogonalEdgeStyle;rounded=0;orthogonalLoop=1;jettySize=auto;html=1;entryX=0.5;entryY=1;entryDx=0;entryDy=0;endArrow=ERzeroToMany;startFill=0;startArrow=none;endFill=0;exitX=0.5;exitY=0;exitDx=0;exitDy=0;" parent="1" source="poKs0t-9GcWinxNH-52K-1" target="xg6VdQRzyTKh4cdd0snq-3" edge="1">
          <mxGeometry relative="1" as="geometry">
            <mxPoint x="500" y="410" as="sourcePoint" />
          </mxGeometry>
        </mxCell>
        <mxCell id="xg6VdQRzyTKh4cdd0snq-9" value="" style="endArrow=ERoneToMany;html=1;rounded=0;exitX=0.5;exitY=1;exitDx=0;exitDy=0;entryX=0.5;entryY=0;entryDx=0;entryDy=0;endFill=0;" parent="1" source="poKs0t-9GcWinxNH-52K-1" target="xg6VdQRzyTKh4cdd0snq-1" edge="1">
          <mxGeometry relative="1" as="geometry">
            <mxPoint x="540" y="470" as="sourcePoint" />
            <mxPoint x="700" y="470" as="targetPoint" />
          </mxGeometry>
        </mxCell>
        <mxCell id="xg6VdQRzyTKh4cdd0snq-11" value="Libro" style="shape=table;startSize=30;container=1;collapsible=1;childLayout=tableLayout;fixedRows=1;rowLines=0;fontStyle=1;align=center;resizeLast=1;html=1;" parent="1" vertex="1">
          <mxGeometry x="640" y="770" width="180" height="155" as="geometry" />
        </mxCell>
        <mxCell id="xg6VdQRzyTKh4cdd0snq-12" value="" style="shape=tableRow;horizontal=0;startSize=0;swimlaneHead=0;swimlaneBody=0;fillColor=none;collapsible=0;dropTarget=0;points=[[0,0.5],[1,0.5]];portConstraint=eastwest;top=0;left=0;right=0;bottom=1;" parent="xg6VdQRzyTKh4cdd0snq-11" vertex="1">
          <mxGeometry y="30" width="180" height="30" as="geometry" />
        </mxCell>
        <mxCell id="xg6VdQRzyTKh4cdd0snq-13" value="PK" style="shape=partialRectangle;connectable=0;fillColor=none;top=0;left=0;bottom=0;right=0;fontStyle=1;overflow=hidden;whiteSpace=wrap;html=1;" parent="xg6VdQRzyTKh4cdd0snq-12" vertex="1">
          <mxGeometry width="30" height="30" as="geometry">
            <mxRectangle width="30" height="30" as="alternateBounds" />
          </mxGeometry>
        </mxCell>
        <mxCell id="xg6VdQRzyTKh4cdd0snq-14" value="id INT NOT NULL" style="shape=partialRectangle;connectable=0;fillColor=none;top=0;left=0;bottom=0;right=0;align=left;spacingLeft=6;fontStyle=5;overflow=hidden;whiteSpace=wrap;html=1;" parent="xg6VdQRzyTKh4cdd0snq-12" vertex="1">
          <mxGeometry x="30" width="150" height="30" as="geometry">
            <mxRectangle width="150" height="30" as="alternateBounds" />
          </mxGeometry>
        </mxCell>
        <mxCell id="xg6VdQRzyTKh4cdd0snq-15" value="" style="shape=tableRow;horizontal=0;startSize=0;swimlaneHead=0;swimlaneBody=0;fillColor=none;collapsible=0;dropTarget=0;points=[[0,0.5],[1,0.5]];portConstraint=eastwest;top=0;left=0;right=0;bottom=0;" parent="xg6VdQRzyTKh4cdd0snq-11" vertex="1">
          <mxGeometry y="60" width="180" height="35" as="geometry" />
        </mxCell>
        <mxCell id="xg6VdQRzyTKh4cdd0snq-16" value="" style="shape=partialRectangle;connectable=0;fillColor=none;top=0;left=0;bottom=0;right=0;editable=1;overflow=hidden;whiteSpace=wrap;html=1;" parent="xg6VdQRzyTKh4cdd0snq-15" vertex="1">
          <mxGeometry width="30" height="35" as="geometry">
            <mxRectangle width="30" height="35" as="alternateBounds" />
          </mxGeometry>
        </mxCell>
        <mxCell id="xg6VdQRzyTKh4cdd0snq-17" value="Titulo &lt;b&gt;VARCHAR(250) NOT NULL&lt;/b&gt;" style="shape=partialRectangle;connectable=0;fillColor=none;top=0;left=0;bottom=0;right=0;align=left;spacingLeft=6;overflow=hidden;whiteSpace=wrap;html=1;" parent="xg6VdQRzyTKh4cdd0snq-15" vertex="1">
          <mxGeometry x="30" width="150" height="35" as="geometry">
            <mxRectangle width="150" height="35" as="alternateBounds" />
          </mxGeometry>
        </mxCell>
        <mxCell id="xg6VdQRzyTKh4cdd0snq-18" value="" style="shape=tableRow;horizontal=0;startSize=0;swimlaneHead=0;swimlaneBody=0;fillColor=none;collapsible=0;dropTarget=0;points=[[0,0.5],[1,0.5]];portConstraint=eastwest;top=0;left=0;right=0;bottom=0;" parent="xg6VdQRzyTKh4cdd0snq-11" vertex="1">
          <mxGeometry y="95" width="180" height="30" as="geometry" />
        </mxCell>
        <mxCell id="xg6VdQRzyTKh4cdd0snq-19" value="" style="shape=partialRectangle;connectable=0;fillColor=none;top=0;left=0;bottom=0;right=0;editable=1;overflow=hidden;whiteSpace=wrap;html=1;" parent="xg6VdQRzyTKh4cdd0snq-18" vertex="1">
          <mxGeometry width="30" height="30" as="geometry">
            <mxRectangle width="30" height="30" as="alternateBounds" />
          </mxGeometry>
        </mxCell>
        <mxCell id="xg6VdQRzyTKh4cdd0snq-20" value="Autor &lt;b&gt;VARCHAR(100) NOT NULL&lt;/b&gt;" style="shape=partialRectangle;connectable=0;fillColor=none;top=0;left=0;bottom=0;right=0;align=left;spacingLeft=6;overflow=hidden;whiteSpace=wrap;html=1;" parent="xg6VdQRzyTKh4cdd0snq-18" vertex="1">
          <mxGeometry x="30" width="150" height="30" as="geometry">
            <mxRectangle width="150" height="30" as="alternateBounds" />
          </mxGeometry>
        </mxCell>
        <mxCell id="xg6VdQRzyTKh4cdd0snq-21" value="" style="shape=tableRow;horizontal=0;startSize=0;swimlaneHead=0;swimlaneBody=0;fillColor=none;collapsible=0;dropTarget=0;points=[[0,0.5],[1,0.5]];portConstraint=eastwest;top=0;left=0;right=0;bottom=0;" parent="xg6VdQRzyTKh4cdd0snq-11" vertex="1">
          <mxGeometry y="125" width="180" height="30" as="geometry" />
        </mxCell>
        <mxCell id="xg6VdQRzyTKh4cdd0snq-22" value="" style="shape=partialRectangle;connectable=0;fillColor=none;top=0;left=0;bottom=0;right=0;editable=1;overflow=hidden;whiteSpace=wrap;html=1;" parent="xg6VdQRzyTKh4cdd0snq-21" vertex="1">
          <mxGeometry width="30" height="30" as="geometry">
            <mxRectangle width="30" height="30" as="alternateBounds" />
          </mxGeometry>
        </mxCell>
        <mxCell id="xg6VdQRzyTKh4cdd0snq-23" value="Editorial &lt;b&gt;VARCHAR(100)&lt;/b&gt;" style="shape=partialRectangle;connectable=0;fillColor=none;top=0;left=0;bottom=0;right=0;align=left;spacingLeft=6;overflow=hidden;whiteSpace=wrap;html=1;" parent="xg6VdQRzyTKh4cdd0snq-21" vertex="1">
          <mxGeometry x="30" width="150" height="30" as="geometry">
            <mxRectangle width="150" height="30" as="alternateBounds" />
          </mxGeometry>
        </mxCell>
        <mxCell id="xg6VdQRzyTKh4cdd0snq-24" value="Usuario" style="shape=table;startSize=30;container=1;collapsible=1;childLayout=tableLayout;fixedRows=1;rowLines=0;fontStyle=1;align=center;resizeLast=1;html=1;" parent="1" vertex="1">
          <mxGeometry x="1290" y="770" width="180" height="120" as="geometry" />
        </mxCell>
        <mxCell id="xg6VdQRzyTKh4cdd0snq-25" value="" style="shape=tableRow;horizontal=0;startSize=0;swimlaneHead=0;swimlaneBody=0;fillColor=none;collapsible=0;dropTarget=0;points=[[0,0.5],[1,0.5]];portConstraint=eastwest;top=0;left=0;right=0;bottom=1;" parent="xg6VdQRzyTKh4cdd0snq-24" vertex="1">
          <mxGeometry y="30" width="180" height="30" as="geometry" />
        </mxCell>
        <mxCell id="xg6VdQRzyTKh4cdd0snq-26" value="PK" style="shape=partialRectangle;connectable=0;fillColor=none;top=0;left=0;bottom=0;right=0;fontStyle=1;overflow=hidden;whiteSpace=wrap;html=1;" parent="xg6VdQRzyTKh4cdd0snq-25" vertex="1">
          <mxGeometry width="30" height="30" as="geometry">
            <mxRectangle width="30" height="30" as="alternateBounds" />
          </mxGeometry>
        </mxCell>
        <mxCell id="xg6VdQRzyTKh4cdd0snq-27" value="id INT NOT NULL" style="shape=partialRectangle;connectable=0;fillColor=none;top=0;left=0;bottom=0;right=0;align=left;spacingLeft=6;fontStyle=5;overflow=hidden;whiteSpace=wrap;html=1;" parent="xg6VdQRzyTKh4cdd0snq-25" vertex="1">
          <mxGeometry x="30" width="150" height="30" as="geometry">
            <mxRectangle width="150" height="30" as="alternateBounds" />
          </mxGeometry>
        </mxCell>
        <mxCell id="xg6VdQRzyTKh4cdd0snq-28" value="" style="shape=tableRow;horizontal=0;startSize=0;swimlaneHead=0;swimlaneBody=0;fillColor=none;collapsible=0;dropTarget=0;points=[[0,0.5],[1,0.5]];portConstraint=eastwest;top=0;left=0;right=0;bottom=0;" parent="xg6VdQRzyTKh4cdd0snq-24" vertex="1">
          <mxGeometry y="60" width="180" height="30" as="geometry" />
        </mxCell>
        <mxCell id="xg6VdQRzyTKh4cdd0snq-29" value="" style="shape=partialRectangle;connectable=0;fillColor=none;top=0;left=0;bottom=0;right=0;editable=1;overflow=hidden;whiteSpace=wrap;html=1;" parent="xg6VdQRzyTKh4cdd0snq-28" vertex="1">
          <mxGeometry width="30" height="30" as="geometry">
            <mxRectangle width="30" height="30" as="alternateBounds" />
          </mxGeometry>
        </mxCell>
        <mxCell id="xg6VdQRzyTKh4cdd0snq-30" value="nombre &lt;b&gt;VARCHAR(250) NOT NULL&lt;/b&gt;" style="shape=partialRectangle;connectable=0;fillColor=none;top=0;left=0;bottom=0;right=0;align=left;spacingLeft=6;overflow=hidden;whiteSpace=wrap;html=1;" parent="xg6VdQRzyTKh4cdd0snq-28" vertex="1">
          <mxGeometry x="30" width="150" height="30" as="geometry">
            <mxRectangle width="150" height="30" as="alternateBounds" />
          </mxGeometry>
        </mxCell>
        <mxCell id="xg6VdQRzyTKh4cdd0snq-31" value="" style="shape=tableRow;horizontal=0;startSize=0;swimlaneHead=0;swimlaneBody=0;fillColor=none;collapsible=0;dropTarget=0;points=[[0,0.5],[1,0.5]];portConstraint=eastwest;top=0;left=0;right=0;bottom=0;" parent="xg6VdQRzyTKh4cdd0snq-24" vertex="1">
          <mxGeometry y="90" width="180" height="30" as="geometry" />
        </mxCell>
        <mxCell id="xg6VdQRzyTKh4cdd0snq-32" value="" style="shape=partialRectangle;connectable=0;fillColor=none;top=0;left=0;bottom=0;right=0;editable=1;overflow=hidden;whiteSpace=wrap;html=1;" parent="xg6VdQRzyTKh4cdd0snq-31" vertex="1">
          <mxGeometry width="30" height="30" as="geometry">
            <mxRectangle width="30" height="30" as="alternateBounds" />
          </mxGeometry>
        </mxCell>
        <mxCell id="xg6VdQRzyTKh4cdd0snq-33" value="telefono &lt;b&gt;VARCHAR(50) NOT NULL&lt;/b&gt;" style="shape=partialRectangle;connectable=0;fillColor=none;top=0;left=0;bottom=0;right=0;align=left;spacingLeft=6;overflow=hidden;whiteSpace=wrap;html=1;" parent="xg6VdQRzyTKh4cdd0snq-31" vertex="1">
          <mxGeometry x="30" width="150" height="30" as="geometry">
            <mxRectangle width="150" height="30" as="alternateBounds" />
          </mxGeometry>
        </mxCell>
        <mxCell id="xg6VdQRzyTKh4cdd0snq-37" value="Prestamo" style="shape=table;startSize=30;container=1;collapsible=1;childLayout=tableLayout;fixedRows=1;rowLines=0;fontStyle=1;align=center;resizeLast=1;html=1;" parent="1" vertex="1">
          <mxGeometry x="950" y="1040" width="240" height="180" as="geometry" />
        </mxCell>
        <mxCell id="1uzmNo3RdjpT_eprxhLB-16" value="" style="shape=tableRow;horizontal=0;startSize=0;swimlaneHead=0;swimlaneBody=0;fillColor=none;collapsible=0;dropTarget=0;points=[[0,0.5],[1,0.5]];portConstraint=eastwest;top=0;left=0;right=0;bottom=1;" parent="xg6VdQRzyTKh4cdd0snq-37" vertex="1">
          <mxGeometry y="30" width="240" height="30" as="geometry" />
        </mxCell>
        <mxCell id="1uzmNo3RdjpT_eprxhLB-17" value="FK" style="shape=partialRectangle;connectable=0;fillColor=none;top=0;left=0;bottom=0;right=0;fontStyle=1;overflow=hidden;whiteSpace=wrap;html=1;" parent="1uzmNo3RdjpT_eprxhLB-16" vertex="1">
          <mxGeometry width="30" height="30" as="geometry">
            <mxRectangle width="30" height="30" as="alternateBounds" />
          </mxGeometry>
        </mxCell>
        <mxCell id="1uzmNo3RdjpT_eprxhLB-18" value="id_usuario" style="shape=partialRectangle;connectable=0;fillColor=none;top=0;left=0;bottom=0;right=0;align=left;spacingLeft=6;fontStyle=5;overflow=hidden;whiteSpace=wrap;html=1;" parent="1uzmNo3RdjpT_eprxhLB-16" vertex="1">
          <mxGeometry x="30" width="210" height="30" as="geometry">
            <mxRectangle width="210" height="30" as="alternateBounds" />
          </mxGeometry>
        </mxCell>
        <mxCell id="xg6VdQRzyTKh4cdd0snq-38" value="" style="shape=tableRow;horizontal=0;startSize=0;swimlaneHead=0;swimlaneBody=0;fillColor=none;collapsible=0;dropTarget=0;points=[[0,0.5],[1,0.5]];portConstraint=eastwest;top=0;left=0;right=0;bottom=1;" parent="xg6VdQRzyTKh4cdd0snq-37" vertex="1">
          <mxGeometry y="60" width="240" height="30" as="geometry" />
        </mxCell>
        <mxCell id="xg6VdQRzyTKh4cdd0snq-39" value="PK" style="shape=partialRectangle;connectable=0;fillColor=none;top=0;left=0;bottom=0;right=0;fontStyle=1;overflow=hidden;whiteSpace=wrap;html=1;" parent="xg6VdQRzyTKh4cdd0snq-38" vertex="1">
          <mxGeometry width="30" height="30" as="geometry">
            <mxRectangle width="30" height="30" as="alternateBounds" />
          </mxGeometry>
        </mxCell>
        <mxCell id="xg6VdQRzyTKh4cdd0snq-40" value="id" style="shape=partialRectangle;connectable=0;fillColor=none;top=0;left=0;bottom=0;right=0;align=left;spacingLeft=6;fontStyle=5;overflow=hidden;whiteSpace=wrap;html=1;" parent="xg6VdQRzyTKh4cdd0snq-38" vertex="1">
          <mxGeometry x="30" width="210" height="30" as="geometry">
            <mxRectangle width="210" height="30" as="alternateBounds" />
          </mxGeometry>
        </mxCell>
        <mxCell id="xg6VdQRzyTKh4cdd0snq-41" value="" style="shape=tableRow;horizontal=0;startSize=0;swimlaneHead=0;swimlaneBody=0;fillColor=none;collapsible=0;dropTarget=0;points=[[0,0.5],[1,0.5]];portConstraint=eastwest;top=0;left=0;right=0;bottom=0;" parent="xg6VdQRzyTKh4cdd0snq-37" vertex="1">
          <mxGeometry y="90" width="240" height="30" as="geometry" />
        </mxCell>
        <mxCell id="xg6VdQRzyTKh4cdd0snq-42" value="" style="shape=partialRectangle;connectable=0;fillColor=none;top=0;left=0;bottom=0;right=0;editable=1;overflow=hidden;whiteSpace=wrap;html=1;" parent="xg6VdQRzyTKh4cdd0snq-41" vertex="1">
          <mxGeometry width="30" height="30" as="geometry">
            <mxRectangle width="30" height="30" as="alternateBounds" />
          </mxGeometry>
        </mxCell>
        <mxCell id="xg6VdQRzyTKh4cdd0snq-43" value="fecha_creacion &lt;b&gt;DATE NOT NULL&lt;/b&gt;" style="shape=partialRectangle;connectable=0;fillColor=none;top=0;left=0;bottom=0;right=0;align=left;spacingLeft=6;overflow=hidden;whiteSpace=wrap;html=1;" parent="xg6VdQRzyTKh4cdd0snq-41" vertex="1">
          <mxGeometry x="30" width="210" height="30" as="geometry">
            <mxRectangle width="210" height="30" as="alternateBounds" />
          </mxGeometry>
        </mxCell>
        <mxCell id="YPsX7gBdi1aO6snWGnzN-4" value="" style="shape=tableRow;horizontal=0;startSize=0;swimlaneHead=0;swimlaneBody=0;fillColor=none;collapsible=0;dropTarget=0;points=[[0,0.5],[1,0.5]];portConstraint=eastwest;top=0;left=0;right=0;bottom=0;" parent="xg6VdQRzyTKh4cdd0snq-37" vertex="1">
          <mxGeometry y="120" width="240" height="30" as="geometry" />
        </mxCell>
        <mxCell id="YPsX7gBdi1aO6snWGnzN-5" value="" style="shape=partialRectangle;connectable=0;fillColor=none;top=0;left=0;bottom=0;right=0;editable=1;overflow=hidden;whiteSpace=wrap;html=1;" parent="YPsX7gBdi1aO6snWGnzN-4" vertex="1">
          <mxGeometry width="30" height="30" as="geometry">
            <mxRectangle width="30" height="30" as="alternateBounds" />
          </mxGeometry>
        </mxCell>
        <mxCell id="YPsX7gBdi1aO6snWGnzN-6" value="fecha_creacion&amp;nbsp;&lt;b&gt;DATE NOT NULL&lt;/b&gt;" style="shape=partialRectangle;connectable=0;fillColor=none;top=0;left=0;bottom=0;right=0;align=left;spacingLeft=6;overflow=hidden;whiteSpace=wrap;html=1;" parent="YPsX7gBdi1aO6snWGnzN-4" vertex="1">
          <mxGeometry x="30" width="210" height="30" as="geometry">
            <mxRectangle width="210" height="30" as="alternateBounds" />
          </mxGeometry>
        </mxCell>
        <mxCell id="xg6VdQRzyTKh4cdd0snq-44" value="" style="shape=tableRow;horizontal=0;startSize=0;swimlaneHead=0;swimlaneBody=0;fillColor=none;collapsible=0;dropTarget=0;points=[[0,0.5],[1,0.5]];portConstraint=eastwest;top=0;left=0;right=0;bottom=0;" parent="xg6VdQRzyTKh4cdd0snq-37" vertex="1">
          <mxGeometry y="150" width="240" height="30" as="geometry" />
        </mxCell>
        <mxCell id="xg6VdQRzyTKh4cdd0snq-45" value="" style="shape=partialRectangle;connectable=0;fillColor=none;top=0;left=0;bottom=0;right=0;editable=1;overflow=hidden;whiteSpace=wrap;html=1;" parent="xg6VdQRzyTKh4cdd0snq-44" vertex="1">
          <mxGeometry width="30" height="30" as="geometry">
            <mxRectangle width="30" height="30" as="alternateBounds" />
          </mxGeometry>
        </mxCell>
        <mxCell id="xg6VdQRzyTKh4cdd0snq-46" value="fecha_entrega&amp;nbsp;&lt;b&gt;DATE NOT NULL&lt;/b&gt;" style="shape=partialRectangle;connectable=0;fillColor=none;top=0;left=0;bottom=0;right=0;align=left;spacingLeft=6;overflow=hidden;whiteSpace=wrap;html=1;" parent="xg6VdQRzyTKh4cdd0snq-44" vertex="1">
          <mxGeometry x="30" width="210" height="30" as="geometry">
            <mxRectangle width="210" height="30" as="alternateBounds" />
          </mxGeometry>
        </mxCell>
        <mxCell id="1uzmNo3RdjpT_eprxhLB-14" value="MER (Modelo Entidad Relacion)" style="text;html=1;align=center;verticalAlign=middle;resizable=0;points=[];autosize=1;strokeColor=none;fillColor=none;" parent="1" vertex="1">
          <mxGeometry x="470" y="130" width="190" height="30" as="geometry" />
        </mxCell>
        <mxCell id="1uzmNo3RdjpT_eprxhLB-15" value="DER (Diagrama Entidad Relacion)" style="text;html=1;align=center;verticalAlign=middle;resizable=0;points=[];autosize=1;strokeColor=none;fillColor=none;" parent="1" vertex="1">
          <mxGeometry x="980" y="710" width="210" height="30" as="geometry" />
        </mxCell>
        <mxCell id="1uzmNo3RdjpT_eprxhLB-36" value="" style="endArrow=ERzeroToMany;html=1;rounded=0;exitX=0.55;exitY=0.967;exitDx=0;exitDy=0;exitPerimeter=0;entryX=1.011;entryY=-0.033;entryDx=0;entryDy=0;entryPerimeter=0;startArrow=ERmandOne;startFill=0;endFill=0;" parent="1" source="xg6VdQRzyTKh4cdd0snq-31" target="xg6VdQRzyTKh4cdd0snq-41" edge="1">
          <mxGeometry relative="1" as="geometry">
            <mxPoint x="890" y="1030" as="sourcePoint" />
            <mxPoint x="1050" y="1030" as="targetPoint" />
            <Array as="points">
              <mxPoint x="1390" y="1130" />
            </Array>
          </mxGeometry>
        </mxCell>
        <mxCell id="1uzmNo3RdjpT_eprxhLB-37" value="Prestamo_Libro" style="shape=table;startSize=30;container=1;collapsible=1;childLayout=tableLayout;fixedRows=1;rowLines=0;fontStyle=1;align=center;resizeLast=1;html=1;" parent="1" vertex="1">
          <mxGeometry x="610" y="1010" width="230" height="130" as="geometry" />
        </mxCell>
        <mxCell id="YPsX7gBdi1aO6snWGnzN-1" value="" style="shape=tableRow;horizontal=0;startSize=0;swimlaneHead=0;swimlaneBody=0;fillColor=none;collapsible=0;dropTarget=0;points=[[0,0.5],[1,0.5]];portConstraint=eastwest;top=0;left=0;right=0;bottom=1;" parent="1uzmNo3RdjpT_eprxhLB-37" vertex="1">
          <mxGeometry y="30" width="230" height="30" as="geometry" />
        </mxCell>
        <mxCell id="YPsX7gBdi1aO6snWGnzN-2" value="PK,FK" style="shape=partialRectangle;connectable=0;fillColor=none;top=0;left=0;bottom=0;right=0;fontStyle=1;overflow=hidden;whiteSpace=wrap;html=1;" parent="YPsX7gBdi1aO6snWGnzN-1" vertex="1">
          <mxGeometry width="50" height="30" as="geometry">
            <mxRectangle width="50" height="30" as="alternateBounds" />
          </mxGeometry>
        </mxCell>
        <mxCell id="YPsX7gBdi1aO6snWGnzN-3" value="id_libro INT NOT NULL" style="shape=partialRectangle;connectable=0;fillColor=none;top=0;left=0;bottom=0;right=0;align=left;spacingLeft=6;fontStyle=5;overflow=hidden;whiteSpace=wrap;html=1;" parent="YPsX7gBdi1aO6snWGnzN-1" vertex="1">
          <mxGeometry x="50" width="180" height="30" as="geometry">
            <mxRectangle width="180" height="30" as="alternateBounds" />
          </mxGeometry>
        </mxCell>
        <mxCell id="1uzmNo3RdjpT_eprxhLB-38" value="" style="shape=tableRow;horizontal=0;startSize=0;swimlaneHead=0;swimlaneBody=0;fillColor=none;collapsible=0;dropTarget=0;points=[[0,0.5],[1,0.5]];portConstraint=eastwest;top=0;left=0;right=0;bottom=1;" parent="1uzmNo3RdjpT_eprxhLB-37" vertex="1">
          <mxGeometry y="60" width="230" height="30" as="geometry" />
        </mxCell>
        <mxCell id="1uzmNo3RdjpT_eprxhLB-39" value="PK,FK" style="shape=partialRectangle;connectable=0;fillColor=none;top=0;left=0;bottom=0;right=0;fontStyle=1;overflow=hidden;whiteSpace=wrap;html=1;" parent="1uzmNo3RdjpT_eprxhLB-38" vertex="1">
          <mxGeometry width="50" height="30" as="geometry">
            <mxRectangle width="50" height="30" as="alternateBounds" />
          </mxGeometry>
        </mxCell>
        <mxCell id="1uzmNo3RdjpT_eprxhLB-40" value="id_prestamo INT NOT NULL" style="shape=partialRectangle;connectable=0;fillColor=none;top=0;left=0;bottom=0;right=0;align=left;spacingLeft=6;fontStyle=5;overflow=hidden;whiteSpace=wrap;html=1;" parent="1uzmNo3RdjpT_eprxhLB-38" vertex="1">
          <mxGeometry x="50" width="180" height="30" as="geometry">
            <mxRectangle width="180" height="30" as="alternateBounds" />
          </mxGeometry>
        </mxCell>
        <mxCell id="1uzmNo3RdjpT_eprxhLB-41" value="" style="shape=tableRow;horizontal=0;startSize=0;swimlaneHead=0;swimlaneBody=0;fillColor=none;collapsible=0;dropTarget=0;points=[[0,0.5],[1,0.5]];portConstraint=eastwest;top=0;left=0;right=0;bottom=0;" parent="1uzmNo3RdjpT_eprxhLB-37" vertex="1">
          <mxGeometry y="90" width="230" height="30" as="geometry" />
        </mxCell>
        <mxCell id="1uzmNo3RdjpT_eprxhLB-42" value="" style="shape=partialRectangle;connectable=0;fillColor=none;top=0;left=0;bottom=0;right=0;editable=1;overflow=hidden;whiteSpace=wrap;html=1;" parent="1uzmNo3RdjpT_eprxhLB-41" vertex="1">
          <mxGeometry width="50" height="30" as="geometry">
            <mxRectangle width="50" height="30" as="alternateBounds" />
          </mxGeometry>
        </mxCell>
        <mxCell id="1uzmNo3RdjpT_eprxhLB-43" value="estado_libro&amp;nbsp;&amp;nbsp;&lt;b&gt;VARCHAR(250) NOT NULL&lt;/b&gt;" style="shape=partialRectangle;connectable=0;fillColor=none;top=0;left=0;bottom=0;right=0;align=left;spacingLeft=6;overflow=hidden;whiteSpace=wrap;html=1;" parent="1uzmNo3RdjpT_eprxhLB-41" vertex="1">
          <mxGeometry x="50" width="180" height="30" as="geometry">
            <mxRectangle width="180" height="30" as="alternateBounds" />
          </mxGeometry>
        </mxCell>
        <mxCell id="q3V0DmMlggCaOjVVcdVf-1" value="" style="endArrow=ERzeroToMany;html=1;rounded=0;exitX=0.461;exitY=1.033;exitDx=0;exitDy=0;exitPerimeter=0;entryX=0.5;entryY=0;entryDx=0;entryDy=0;startArrow=ERmandOne;startFill=0;endFill=0;" parent="1" source="xg6VdQRzyTKh4cdd0snq-21" target="1uzmNo3RdjpT_eprxhLB-37" edge="1">
          <mxGeometry relative="1" as="geometry">
            <mxPoint x="810" y="1020" as="sourcePoint" />
            <mxPoint x="970" y="1020" as="targetPoint" />
            <Array as="points" />
          </mxGeometry>
        </mxCell>
        <mxCell id="q3V0DmMlggCaOjVVcdVf-2" value="" style="endArrow=ERmandOne;html=1;rounded=0;exitX=1;exitY=0.5;exitDx=0;exitDy=0;entryX=0;entryY=0.5;entryDx=0;entryDy=0;startArrow=ERoneToMany;startFill=0;endFill=0;" parent="1" source="1uzmNo3RdjpT_eprxhLB-41" target="xg6VdQRzyTKh4cdd0snq-38" edge="1">
          <mxGeometry relative="1" as="geometry">
            <mxPoint x="863" y="1210" as="sourcePoint" />
            <mxPoint x="860" y="1379" as="targetPoint" />
          </mxGeometry>
        </mxCell>
        <mxCell id="poKs0t-9GcWinxNH-52K-1" value="Contiente" style="shape=associativeEntity;whiteSpace=wrap;html=1;align=center;" vertex="1" parent="1">
          <mxGeometry x="320" y="440" width="140" height="60" as="geometry" />
        </mxCell>
        <mxCell id="poKs0t-9GcWinxNH-52K-5" style="edgeStyle=orthogonalEdgeStyle;rounded=0;orthogonalLoop=1;jettySize=auto;html=1;entryX=1;entryY=0.5;entryDx=0;entryDy=0;" edge="1" parent="1" source="poKs0t-9GcWinxNH-52K-2" target="poKs0t-9GcWinxNH-52K-1">
          <mxGeometry relative="1" as="geometry" />
        </mxCell>
        <mxCell id="poKs0t-9GcWinxNH-52K-2" value="Estado del libro" style="ellipse;whiteSpace=wrap;html=1;align=center;" vertex="1" parent="1">
          <mxGeometry x="550" y="450" width="100" height="40" as="geometry" />
        </mxCell>
      </root>
    </mxGraphModel>
  </diagram>
  <diagram id="l9p_-EEaCezTHUqpzi8n" name="Page-4">
    <mxGraphModel dx="1426" dy="849" grid="1" gridSize="10" guides="1" tooltips="1" connect="1" arrows="1" fold="1" page="1" pageScale="1" pageWidth="5000" pageHeight="5000" math="0" shadow="0">
      <root>
        <mxCell id="0" />
        <mxCell id="1" parent="0" />
        <mxCell id="qJ0kZYAvu6rB-jrgfSZw-3" style="edgeStyle=orthogonalEdgeStyle;rounded=0;orthogonalLoop=1;jettySize=auto;html=1;exitX=1;exitY=0.5;exitDx=0;exitDy=0;entryX=0;entryY=0.5;entryDx=0;entryDy=0;endArrow=none;startFill=0;startArrow=ERzeroToMany;" parent="1" source="EGTkzFckmhnmrRtpCdSj-1" target="qJ0kZYAvu6rB-jrgfSZw-2" edge="1">
          <mxGeometry relative="1" as="geometry" />
        </mxCell>
        <mxCell id="EGTkzFckmhnmrRtpCdSj-1" value="Curso" style="rounded=0;whiteSpace=wrap;html=1;" parent="1" vertex="1">
          <mxGeometry x="350" y="330" width="120" height="60" as="geometry" />
        </mxCell>
        <mxCell id="qJ0kZYAvu6rB-jrgfSZw-1" value="Herramienta" style="whiteSpace=wrap;html=1;" parent="1" vertex="1">
          <mxGeometry x="840" y="330" width="120" height="60" as="geometry" />
        </mxCell>
        <mxCell id="qJ0kZYAvu6rB-jrgfSZw-4" style="edgeStyle=orthogonalEdgeStyle;rounded=0;orthogonalLoop=1;jettySize=auto;html=1;exitX=1;exitY=0.5;exitDx=0;exitDy=0;endArrow=ERzeroToMany;startFill=0;endFill=0;" parent="1" source="qJ0kZYAvu6rB-jrgfSZw-2" target="qJ0kZYAvu6rB-jrgfSZw-1" edge="1">
          <mxGeometry relative="1" as="geometry" />
        </mxCell>
        <mxCell id="qJ0kZYAvu6rB-jrgfSZw-2" value="Usar" style="shape=rhombus;perimeter=rhombusPerimeter;whiteSpace=wrap;html=1;align=center;" parent="1" vertex="1">
          <mxGeometry x="600" y="330" width="120" height="60" as="geometry" />
        </mxCell>
        <mxCell id="ohnbPPapbMMipcl01VHk-1" style="edgeStyle=orthogonalEdgeStyle;rounded=0;orthogonalLoop=1;jettySize=auto;html=1;exitX=1;exitY=0.5;exitDx=0;exitDy=0;entryX=0;entryY=0.5;entryDx=0;entryDy=0;endArrow=none;startFill=0;startArrow=ERmandOne;" edge="1" parent="1" source="ohnbPPapbMMipcl01VHk-2" target="ohnbPPapbMMipcl01VHk-5">
          <mxGeometry relative="1" as="geometry" />
        </mxCell>
        <mxCell id="ohnbPPapbMMipcl01VHk-2" value="Proyecto" style="rounded=0;whiteSpace=wrap;html=1;" vertex="1" parent="1">
          <mxGeometry x="350" y="510" width="120" height="60" as="geometry" />
        </mxCell>
        <mxCell id="ohnbPPapbMMipcl01VHk-3" value="Tarea" style="whiteSpace=wrap;html=1;" vertex="1" parent="1">
          <mxGeometry x="840" y="510" width="120" height="60" as="geometry" />
        </mxCell>
        <mxCell id="ohnbPPapbMMipcl01VHk-4" style="edgeStyle=orthogonalEdgeStyle;rounded=0;orthogonalLoop=1;jettySize=auto;html=1;exitX=1;exitY=0.5;exitDx=0;exitDy=0;endArrow=ERoneToMany;startFill=0;endFill=0;" edge="1" parent="1" source="ohnbPPapbMMipcl01VHk-5" target="ohnbPPapbMMipcl01VHk-3">
          <mxGeometry relative="1" as="geometry" />
        </mxCell>
        <mxCell id="ohnbPPapbMMipcl01VHk-5" value="Tiene" style="shape=rhombus;perimeter=rhombusPerimeter;whiteSpace=wrap;html=1;align=center;" vertex="1" parent="1">
          <mxGeometry x="600" y="510" width="120" height="60" as="geometry" />
        </mxCell>
      </root>
    </mxGraphModel>
  </diagram>
</mxfile>
